<?xml version="1.0" standalone="no"?><!DOCTYPE svg PUBLIC "-//W3C//DTD SVG 1.1//EN" "http://www.w3.org/Graphics/SVG/1.1/DTD/svg11.dtd"><svg t="1589093340467" class="icon" viewBox="0 0 1024 1024" version="1.1" xmlns="http://www.w3.org/2000/svg" p-id="3031" xmlns:xlink="http://www.w3.org/1999/xlink" width="200" height="200"><defs><style type="text/css"></style></defs><path d="M510.976182 93.63661l0-1.272993 0 0L510.976182 93.63661 510.976182 93.63661zM391.080511 961.609021 226.178811 961.609021c-16.537651 0-29.92966-13.406335-29.92966-29.943986L196.249151 541.973662 76.352457 541.973662c-8.268314 0-14.987343-6.710842-14.987343-14.987343 0-4.874007 2.326998-9.198499 5.928013-11.935843l-0.029676 0L497.906515 70.051449c2.561335-4.573155 7.463995-7.661494 13.068643-7.661494 5.635347 0 10.552334 3.118014 13.113669 7.728008l430.569386 444.919209c3.601015 2.737344 5.92699 7.077186 5.92699 11.95017 0 8.276501-6.716982 14.987343-14.987343 14.987343l0 0.028653L795.728528 542.003338l0 389.662721c0 16.537651-13.362332 29.943986-29.92966 29.943986L600.898191 961.610044 600.898191 736.768183c0-16.581654-13.450337-29.936823-30.061666-29.936823L421.142178 706.83136c-16.61133 0-30.061666 13.406335-30.061666 29.936823L391.080511 961.609021z" p-id="3032"></path></svg>