<?xml version="1.0" standalone="no"?><!DOCTYPE svg PUBLIC "-//W3C//DTD SVG 1.1//EN" "http://www.w3.org/Graphics/SVG/1.1/DTD/svg11.dtd"><svg t="1589090494591" class="icon" viewBox="0 0 1024 1024" version="1.1" xmlns="http://www.w3.org/2000/svg" p-id="2272" xmlns:xlink="http://www.w3.org/1999/xlink" width="200" height="200"><defs><style type="text/css"></style></defs><path d="M992 1024H32c-19.2 0-32-12.8-32-32V32C0 12.8 12.8 0 32 0h960c19.2 0 32 12.8 32 32v960c0 19.2-12.8 32-32 32zM64 960h896V64H64v896z" fill="#14ADC4" p-id="2273"></path><path d="M320 384H160c-19.2 0-32-12.8-32-32V192c0-19.2 12.8-32 32-32H320c19.2 0 32 12.8 32 32v160c0 19.2-12.8 32-32 32zM192 320h96V224H192V320zM864 384H448c-19.2 0-32-12.8-32-32V192c0-19.2 12.8-32 32-32h416c19.2 0 32 12.8 32 32v160c0 19.2-12.8 32-32 32z m-384-64H832V224H480V320zM864 544h-704c-19.2 0-32-12.8-32-32s12.8-32 32-32h710.4c12.8 0 25.6 12.8 25.6 32s-12.8 32-32 32zM556.8 704H160c-19.2 0-32-12.8-32-32s12.8-32 32-32h396.8c19.2 0 32 12.8 32 32s-12.8 32-32 32zM678.4 864H160c-19.2 0-32-12.8-32-32s12.8-32 32-32h524.8c19.2 0 32 12.8 32 32s-19.2 32-38.4 32z" fill="#14ADC4" p-id="2274"></path></svg>